PathFileType	4	(X/Y/Z)	/mnt/D494C4CF94C4B4F0/Trampoline_predictions/poses3d/1_partie_0429.trc
DataRate	CameraRate	NumFrames	NumMarkers	Units	OrigDataRate	OrigDataStartFrame	OrigNumFrames
120	120	10	17	m	120	218	1746
Frame#	Time	Nose			L Eye			R Eye			L Ear			R Ear			L Shoulder			R Shoulder			L Elbow			R Elbow			L Wrist			R Wrist			L Hip			R Hip			L Knee			R Knee			L Ankle			R Ankle			
		X1	Y1	Z1	X2	Y2	Z2	X3	Y3	Z3	X4	Y4	Z4	X5	Y5	Z5	X6	Y6	Z6	X7	Y7	Z7	X8	Y8	Z8	X9	Y9	Z9	X10	Y10	Z10	X11	Y11	Z11	X12	Y12	Z12	X13	Y13	Z13	X14	Y14	Z14	X15	Y15	Z15	X16	Y16	Z16	X17	Y17	Z17	
218	1.816666666667	0.3027059543502542	-0.019401216418295463	4.923574572694163	0.23705945554801697	-0.032830292875177254	4.955653473562578	0.2925258310119484	-0.005381926773277254	4.907745706145863	0.226156122170749	-0.07479118665764355	5.007181914089215	0.31649389439300385	0.01319176828490801	4.93859534736002	0.3265632368130702	-0.17780974294756205	5.162572830399465	0.4559446389265171	0.08868397712662904	5.039266545717078	0.5085299126317602	-0.22727448864707678	5.341870153517522	0.6459522306111313	0.1644601138330987	5.178097465586555	0.7207827946024744	-0.14709266339642482	5.449192352696065	0.8316780424976912	0.20360981995416494	5.28746525904015	0.5906475962148638	0.024326544714433743	5.469494512963509	0.6508207683601233	0.13341250922208872	5.370980343931526	1.0088341645165937	0.011843111542140202	5.45791157083493	1.0518132060253749	0.09196402352206035	5.401038058240279	1.0848818726910978	0.23719563047589834	5.722738269195884	1.078937909881019	0.29731388706742723	5.681585417389321
219	1.825	0.3121546208752759	-0.0028628663697426613	4.882741132141472	0.25696165234212043	-0.023104906085999646	4.906561064518989	0.3037303094779084	-0.0016645448249325296	4.8722225800608525	0.23848799300814644	-0.05466747342627206	4.9713456211035645	0.32828861715262514	0.004944829505596617	4.915508170390979	0.3148489261954767	-0.16644229624798576	5.132477237507164	0.4743545030360021	0.08913176399015241	5.013255937083746	0.48101311526171997	-0.22299808881347935	5.315676639447472	0.6501060652142576	0.18250796800064453	5.1676032635106095	0.6940669903161977	-0.16902491974887957	5.440547868401064	0.8453485417327635	0.18946210773235395	5.287382066191957	0.5797144354739411	0.03891796536974211	5.46101728305519	0.6580276574163143	0.14068428199986832	5.3519733460281085	0.9967958109226028	0.01871922166675602	5.487367583607908	0.9496227699426563	0.19658602034696895	5.432920610603501	1.0753927377671892	0.25154828893927805	5.752042682624572	1.0669113407528508	0.3181988983113216	5.713310991240714
220	1.833333333333	0.3139386837087066	-0.019519683372658324	4.84894469473218	0.2560256728321565	-0.025687348745672713	4.8778897098074285	0.30151368463594264	0.003754241908261312	4.849499134534799	0.24494620498451225	-0.049256801801732045	4.926865823995101	0.34484322457606975	0.009142490597274391	4.875685671862219	0.30875940737966606	-0.1622392953100956	5.094745161001906	0.49077059205857715	0.0810543750272668	4.976831007714254	0.46331224505118124	-0.2117999291330023	5.2916775622378385	0.6705719729255794	0.14723035898083806	5.142353377692731	0.6596981238333179	-0.16431785375672986	5.426585496456683	0.8405394624206755	0.19376988304680534	5.2820290798247616	0.5822583701826503	0.03457096907057406	5.421181234866161	0.6591546040607897	0.12557018678425214	5.326683687541784	0.989574121361808	0.04603808485412993	5.511285639406826	0.9882405755079726	0.1247877761931349	5.424537423323973	1.0773886895179305	0.2572070283166049	5.770163621417263	1.0664595631892648	0.31135638980766245	5.725845044553702
221	1.841666666667	0.31146955613198396	0.004692701222318078	4.844196734213963	0.2725213061305778	-0.018702360847187956	4.839726285794708	0.314445562972856	0.012244266983302048	4.820639218079982	0.2535033281510689	-0.04240048260490986	4.892443152980918	0.35467206857935635	0.017516430163686827	4.847784291786385	0.3053381159734537	-0.1575493556545279	5.0642465295983765	0.5003889553491926	0.08417124863403497	4.949354051601792	0.43475502060486687	-0.187669125282346	5.271386406349948	0.6728138417107294	0.1561974849700763	5.122933981972108	0.6396244646742231	-0.14982337589494368	5.42575809553924	0.8282026834075698	0.20688404929682813	5.272572744134106	0.582701656938373	0.03270982525913862	5.3916142677152425	0.6596470113159522	0.12324913170031714	5.30010970514884	0.9786500152126233	0.05196076873048968	5.53382970289151	0.9640363176729488	0.13465418143461888	5.4339261689123	1.07978471037208	0.2616769969065021	5.78969213554624	1.066626487819029	0.3173861042977768	5.746837644677453
222	1.85	0.3100530339085064	-0.0006373789792942129	4.806648012350608	0.2863893353534238	-0.03365584197972616	4.787306041848292	0.3213822377617581	0.011478415848089554	4.782438242904139	0.26436799256627125	-0.038722252239609636	4.853922145188734	0.3752835097867655	0.027718041771046545	4.805816603559533	0.30455777739026046	-0.1532665429203203	5.0278443339978685	0.5215578182812537	0.07701458315625902	4.922110822071016	0.42015683611996824	-0.17481957565638848	5.2472488411746365	0.6815552211152828	0.15005573705792427	5.094612900275842	0.611645877975963	-0.13404392147398386	5.42089046911815	0.8310394264319687	0.19367282526745122	5.256367954212951	0.5822839929001552	0.03708927470770351	5.368411733761706	0.6599736864477878	0.10709689537280345	5.285345617194198	0.9557268642678699	0.08534927446200831	5.555961341400888	0.9550921788950753	0.14665412702354644	5.458705868764604	1.0777585344173295	0.2739803440817537	5.811921305308316	1.0541451885524773	0.32665986413771964	5.768686379116093
223	1.858333333333	0.3416052515381917	-0.037759853778351476	4.741014953618126	0.3027235395070474	-0.03473821785260963	4.744535942973063	0.34871659969284163	-0.009222473866859772	4.728770578642438	0.27897680760928834	-0.03748491270396934	4.814699501380995	0.38896190091130484	0.035561383997967766	4.775741984454801	0.3065854464661543	-0.1520492885275377	4.999127851679508	0.5337513481957898	0.07982943770568139	4.893477619538966	0.40683099968785436	-0.16325933475233012	5.222324422719594	0.6811216938234245	0.14732763649880534	5.067892471178373	0.6115238736998951	-0.15593128904756204	5.384129615263194	0.817868407587592	0.20855265160244277	5.23678074766849	0.5743038698701464	0.02564664506488653	5.340972647547185	0.667277471453419	0.10881109077872676	5.2642526062430495	0.9268274544333921	0.078022468927204	5.567012280953542	0.9294314919884616	0.17632408704107297	5.467218333609434	1.0715180890139848	0.27391134648356996	5.82798379339756	1.053159773029252	0.32971645668575533	5.785788623981376
224	1.866666666667	0.3353477025351524	-0.0054266407380391775	4.717805721890849	0.30734652981045424	-0.013337751521097969	4.716809025617412	0.35100086176285616	0.00787288814964641	4.701917893827721	0.29539680296597487	-0.021465527530673136	4.779375800560796	0.39871512340163623	0.03194271484881152	4.7464990462075365	0.3130553030614048	-0.14462162616324348	4.967548301155069	0.5363960129588153	0.08391630765726005	4.878180195686829	0.4015551502612148	-0.15816831679949372	5.202542049637128	0.6925687195675153	0.13900632011387412	5.055465535712845	0.5967799099643228	-0.14159881531392357	5.37346880510483	0.819683135512912	0.20121303008091762	5.23708701919872	0.589403130060755	0.0313175002228558	5.324159499074838	0.6760023541361476	0.09576025162183147	5.265256899987834	0.910570499745089	0.046385734154706454	5.556995528282331	0.8796941719335697	0.17646407280441304	5.512932970340529	1.0715299968151863	0.2812494583107595	5.8424150663896866	1.0415585210550864	0.32742990223372875	5.805002794009486
225	1.875	0.3528757797868164	-0.0036987237468240983	4.686185975238986	0.3253439286215911	-0.006132008977949065	4.683255606136358	0.3648494830468611	0.007215154038810947	4.6702655249349405	0.31324370321048406	-0.0027009192009120313	4.7388847953158635	0.4051383409421015	0.027215287129225867	4.716070820965436	0.33267427654614634	-0.14354591238198672	4.927802348774223	0.5421946114053949	0.099040156732156	4.8577242061135095	0.41303295237825777	-0.16731631767402805	5.160413443672267	0.7067417458796772	0.13998124183563185	5.044197526927814	0.5835310352370388	-0.14908063240301023	5.3424115140882344	0.8294230261674796	0.20914571017447559	5.242743425296842	0.5872951446140761	-0.0011763668720878374	5.291511707628345	0.6772746740561167	0.11791806314073539	5.237678802259983	0.8855271085230142	0.06334861544976325	5.571073934272271	0.8920948511142488	0.17311905150406914	5.486478857587854	1.05864007796225	0.2754224974139302	5.847365815555169	1.0379755563040973	0.31613158232066496	5.81277283228974
226	1.883333333333	0.36235164897035965	0.01686735182118931	4.660573225466424	0.342175542924265	0.010384487525229085	4.649564181806882	0.37653767344035055	0.01290190120891349	4.643351516918088	0.3354413750516147	-0.0011716079081742297	4.696776455052267	0.4205606936300472	0.015799765937864352	4.685050860664535	0.32218934191508986	-0.1293190585552566	4.9040567655458585	0.5689868112290922	0.08809399087190234	4.824753700187117	0.3905389650616304	-0.14765306082131058	5.141277578966716	0.6897485291325668	0.15360806476430508	5.035051477303099	0.5517652780245069	-0.1405548860528053	5.323550685089916	0.8248313618842689	0.1910787567919203	5.215298208203227	0.5864360947341507	-0.01022046405427589	5.251565673177231	0.6686625140544428	0.11379380458116035	5.206800104501203	0.8485440051710412	0.07037652679979887	5.5495897159633305	0.8604643131003419	0.17287154074965005	5.4727657729343155	1.0393634312038358	0.25469815931069345	5.835383851038062	1.0236457095355413	0.3058056760770748	5.809748939324268
227	1.891666666667	0.38846739044410417	0.01983644890375183	4.635670640959018	0.36448551875597013	0.018965752650383833	4.624141854592407	0.4019447317805717	0.01477099307306738	4.616853764536379	0.35436417359350847	0.014446878726780073	4.673269934589912	0.44477455526027404	0.010258971171163894	4.656312670265346	0.3476812116183525	-0.1257563200726405	4.8679154275815355	0.5761142264872523	0.08876019562060314	4.803922071143388	0.37238511985625905	-0.12494538927660699	5.116808577688557	0.7023113434972934	0.1375495293295968	5.014125516922795	0.533344635593263	-0.14214815260426444	5.295102008996861	0.8224615923680222	0.17938578059784765	5.195328908983736	0.5865611078377206	-0.0010852174252781093	5.231165388631639	0.6532878569934653	0.08216068545260732	5.209375903261716	0.808960157172011	0.07820121099026962	5.540426806842119	0.8244608462040417	0.17002287708726976	5.505776089167834	0.9997395536717789	0.260521290784614	5.8310040757490595	0.9868882487487805	0.30747957691719136	5.816729068524861
